PathFileType	4	(X/Y/Z)	/Users/itak/Documents/Research/Walk-IL/dataset/trc/00214_00009.trc
DataRate	CameraRate	NumFrames	NumMarkers	Units	OrigDataRate	OrigDataStartFrame	OrigNumFrames
100.000000	100.000000	4	54	mm	100.000000	441	505
Frame#	Time	RPSI			LPSI			L3			STRN			T10			C7			CLAV			RBAK			LBAK			LSHO			LUPA			LAEL			LAOL			LWTS			LWPS			LFRA			LIFD			LHPS			LHTS			RSHO			RUPA			RAEL			RAOL			RWPS			RFRA			RIFD			RHPS			RBHD			LFHD			RFHD			LBHD			LHIP			RHIP			RASI			LASI			LKNE			LTHI			LANK			LTIP			LTOE			LMT1			LMT5			LHEE			RKNE			RTHI			RANK			RTIP			RTOE			RMT5			RHEE			RWTS			RHTS			RMT1			*53			
		X1	Y1	Z1	X2	Y2	Z2	X3	Y3	Z3	X4	Y4	Z4	X5	Y5	Z5	X6	Y6	Z6	X7	Y7	Z7	X8	Y8	Z8	X9	Y9	Z9	X10	Y10	Z10	X11	Y11	Z11	X12	Y12	Z12	X13	Y13	Z13	X14	Y14	Z14	X15	Y15	Z15	X16	Y16	Z16	X17	Y17	Z17	X18	Y18	Z18	X19	Y19	Z19	X20	Y20	Z20	X21	Y21	Z21	X22	Y22	Z22	X23	Y23	Z23	X24	Y24	Z24	X25	Y25	Z25	X26	Y26	Z26	X27	Y27	Z27	X28	Y28	Z28	X29	Y29	Z29	X30	Y30	Z30	X31	Y31	Z31	X32	Y32	Z32	X33	Y33	Z33	X34	Y34	Z34	X35	Y35	Z35	X36	Y36	Z36	X37	Y37	Z37	X38	Y38	Z38	X39	Y39	Z39	X40	Y40	Z40	X41	Y41	Z41	X42	Y42	Z42	X43	Y43	Z43	X44	Y44	Z44	X45	Y45	Z45	X46	Y46	Z46	X47	Y47	Z47	X48	Y48	Z48	X49	Y49	Z49	X50	Y50	Z50	X51	Y51	Z51	X52	Y52	Z52	X53	Y53	Z53	X54	Y54	Z54	

442	4.41	778.0028076171875	1035.210327148438	-174.4004516601562	771.1031494140625	1039.2734375	-294.5714111328125	765.6566772460938	1121.19091796875	-246.8585357666016	1002.611389160156	1310.575927734375	-276.6159973144531	756.7678833007812	1248.7861328125	-235.7926025390625	811.40380859375	1510.654541015625	-246.8917694091797	974.3446655273438	1427.081176757812	-271.222412109375	750.22021484375	1372.121459960938	-161.11767578125	774.8118286132812	1472.477294921875	-352.4294128417969	852.7406005859375	1471.556518554688	-421.9768981933594	803.4523315429688	1352.936645507812	-489.5778198242188	792.702880859375	1144.063354492188	-516.5099487304688	737.027587890625	1131.863647460938	-449.6365661621094	878.2799072265625	902.6149291992188	-491.4057312011719	826.380859375	889.7970581054688	-556.8682861328125	801.2453002929688	1036.214721679688	-535.9232177734375	862.0764770507812	705.9423828125	-500.4340515136719	834.434326171875	800.0955810546875	-556.9811401367188	890.5006103515625	801.4457397460938	-518.8294067382812	897.77490234375	1471.569580078125	-90.14215850830078	892.642578125	1408.915893554688	-19.62644386291504	891.2403564453125	1129.960571289062	34.03194046020508	840.1376953125	1117.488159179688	-45.98612594604492	1004.249267578125	912.5438842773438	34.36960983276367	926.7338256835938	1064.363891601562	40.63644409179688	1062.199829101562	756.2125244140625	-59.89727401733398	1057.52490234375	812.1451416015625	25.55461883544922	853.776123046875	1664.2509765625	-203.611572265625	1046.21435546875	1715.542724609375	-313.1534423828125	1053.463134765625	1711.884521484375	-213.2613830566406	887.8255004882812	1676.099731445312	-339.4511108398438	866.5748901367188	980.8042602539062	-440.0352783203125	882.7996215820312	999.4940795898438	-72.63860321044922	975.5674438476562	1046.030395507812	-115.5156860351562	968.8942260742188	1026.003784179688	-398.5452270507812	992.140625	506.5195617675781	-402.0545043945312	957.2544555664062	646.9140014648438	-430.4668884277344	883.1531372070312	30.90678024291992	-388.6959533691406	932.4169311523438	282.3555603027344	-406.2987365722656	1096.42578125	37.4735221862793	-334.1923217773438	1028.280517578125	33.10274124145508	-291.92333984375	1010.615783691406	27.33748245239258	-405.8207397460938	823.0184936523438	42.72758102416992	-338.8679504394531	934.8753051757812	509.9389038085938	-128.4066467285156	952.8452758789062	777.4192504882812	-80.03933715820312	844.3160400390625	27.90868949890137	-161.0132904052734	938.1124267578125	389.8025207519531	-152.2403869628906	1050.450927734375	33.64850616455078	-226.0265350341797	954.6934814453125	25.9881591796875	-143.4226379394531	775.8900146484375	31.90111541748047	-213.9668579101562	1040.759521484375	934.370849609375	-38.28015899658203	1099.705688476562	819.9714965820312	-32.53763961791992	990.3595581054688	33.41296768188477	-260.4149475097656	nan	nan	nan	
443	4.42	780.7643432617188	1035.028930664062	-175.2618865966797	773.8250122070312	1039.012817382812	-295.4277954101562	768.2810668945312	1120.737670898438	-247.9287261962891	1004.964538574219	1310.525512695312	-277.2912292480469	759.2068481445312	1248.365478515625	-237.0911560058594	813.3927001953125	1510.353393554688	-248.2190399169922	976.521484375	1427.00732421875	-272.0204772949219	751.9786376953125	1371.76904296875	-162.6880035400391	777.1273803710938	1472.036376953125	-353.9100341796875	855.2922973632812	1471.157470703125	-423.1282653808594	806.9512939453125	1352.330932617188	-490.9354553222656	798.1143188476562	1143.251098632812	-518.0111083984375	741.8697509765625	1130.641235351562	-451.7291259765625	886.2551879882812	902.9446411132812	-491.556640625	835.217529296875	889.3051147460938	-557.54150390625	808.0526733398438	1035.45556640625	-537.163330078125	873.2772827148438	706.092041015625	-500.5634155273438	844.6627197265625	799.7750854492188	-557.4569091796875	900.9349365234375	801.3848876953125	-519.4645385742188	899.3278198242188	1471.294677734375	-91.12040710449219	893.9498291015625	1408.45947265625	-20.74857711791992	892.4395141601562	1129.3974609375	32.41225433349609	841.241943359375	1117.298095703125	-47.58063125610352	1004.067138671875	911.3129272460938	32.74211883544922	927.5473022460938	1063.637084960938	38.94207000732422	1060.420166015625	754.150634765625	-61.52124404907227	1056.38671875	810.3914184570312	23.8386287689209	855.6136474609375	1664.06396484375	-204.7101135253906	1048.076171875	1715.519287109375	-314.116943359375	1055.263793945312	1711.8798828125	-214.2208557128906	889.741943359375	1675.945678710938	-340.520263671875	869.4580078125	980.507568359375	-440.8836669921875	885.7374877929688	999.5737915039062	-73.50841522216797	978.3246459960938	1046.013916015625	-116.3301315307617	971.78515625	1025.99609375	-399.3321838378906	991.8846435546875	505.8041687011719	-402.4357299804688	957.9036254882812	646.3121337890625	-431.0166931152344	883.0892944335938	30.59369659423828	-388.5155944824219	932.4051513671875	281.5977478027344	-406.2891845703125	1096.935424804688	35.71010971069336	-333.9398193359375	1028.504760742188	32.09505462646484	-291.6396484375	1010.684020996094	26.94476890563965	-406.0343322753906	823.1903686523438	42.31957244873047	-338.4238891601562	936.2330932617188	509.8229064941406	-128.8405151367188	955.1513671875	777.1781616210938	-80.45728302001953	844.3627319335938	28.00754928588867	-161.1022338867188	939.0118408203125	389.6897277832031	-152.6671295166016	1050.4794921875	33.65842056274414	-226.0255279541016	954.6912841796875	26.00576972961426	-143.4723510742188	775.9476928710938	32.04660797119141	-214.0270080566406	1040.525268554688	932.7084350585938	-40.05554962158203	1098.406982421875	817.744384765625	-34.4416618347168	990.40283203125	33.43081283569336	-260.4532470703125	nan	nan	nan	
444	4.43	783.4514770507812	1034.87158203125	-176.0783538818359	776.4295654296875	1038.811157226562	-296.2242736816406	770.8399047851562	1120.358642578125	-248.9498138427734	1007.254577636719	1310.479248046875	-277.9648132324219	761.5360717773438	1248.009033203125	-238.3936462402344	815.3577880859375	1510.112426757812	-249.5846252441406	978.659912109375	1426.9619140625	-272.826171875	753.6661376953125	1371.479125976562	-164.2958221435547	779.4136352539062	1471.6572265625	-355.428955078125	857.8448486328125	1470.805786132812	-424.2984313964844	810.4928588867188	1351.801879882812	-492.343994140625	803.6773681640625	1142.52392578125	-519.5990600585938	746.7919311523438	1129.462524414062	-453.9760131835938	894.3251342773438	903.3809204101562	-491.73193359375	844.2515258789062	888.9570922851562	-558.2996215820312	815.0364379882812	1034.808227539062	-538.4953002929688	884.5894165039062	706.4191284179688	-500.7632751464844	855.0787353515625	799.614501953125	-558.0218505859375	911.461669921875	801.5119018554688	-520.0722045898438	900.8258056640625	1471.058715820312	-92.11850738525391	895.1903076171875	1408.038940429688	-21.88147354125977	893.4925537109375	1128.861694335938	30.72484016418457	842.1449584960938	1117.158203125	-49.30071640014648	1003.723327636719	910.1132202148438	31.13948440551758	928.2128295898438	1062.941040039062	37.21166229248047	1058.509887695312	752.0878295898438	-63.05035400390625	1055.07275390625	808.6701049804688	22.19464874267578	857.4287109375	1663.92138671875	-205.8490905761719	1049.923217773438	1715.513671875	-315.1200561523438	1057.044067382812	1711.896362304688	-215.2205047607422	891.6419677734375	1675.82666015625	-341.6312255859375	872.2297973632812	980.3248291015625	-441.7659912109375	888.5345458984375	999.6866455078125	-74.41135406494141	981.0396118164062	1046.016479492188	-117.1937026977539	974.6338500976562	1026.007446289062	-400.1683349609375	991.5823364257812	505.1929321289062	-402.9331665039062	958.4929809570312	645.8453979492188	-431.6407165527344	883.058349609375	30.2780590057373	-388.4796142578125	932.4006958007812	280.9400024414062	-406.4237976074219	1097.349243164062	34.39862060546875	-333.7859191894531	1028.677734375	31.39360427856445	-291.4625549316406	1010.722778320312	26.65339088439941	-406.2972106933594	823.3231811523438	41.91123580932617	-338.1492004394531	937.5859985351562	509.7218322753906	-129.3577728271484	957.4514770507812	776.942138671875	-80.88917541503906	844.4044189453125	28.12466621398926	-161.2017974853516	939.9024658203125	389.5984802246094	-153.1584930419922	1050.513793945312	33.66981887817383	-226.0339508056641	954.6918334960938	26.03425407409668	-143.5409393310547	775.9977416992188	32.19854354858398	-214.1139373779297	1040.16845703125	931.065673828125	-41.78805923461914	1096.956787109375	815.5384521484375	-36.2529296875	990.4525146484375	33.43788528442383	-260.5037536621094	nan	nan	nan	
445	4.44	786.057373046875	1034.739379882812	-176.8453063964844	778.9194946289062	1038.667846679688	-296.9580993652344	773.3438720703125	1120.064453125	-249.9112091064453	1009.475280761719	1310.437744140625	-278.6378479003906	763.7371826171875	1247.725952148438	-239.6913299560547	817.2998657226562	1509.933471679688	-250.9792938232422	980.753662109375	1426.93896484375	-273.6323852539062	755.2959594726562	1371.257202148438	-165.9205474853516	781.6663818359375	1471.349975585938	-356.9761657714844	860.3936767578125	1470.509155273438	-425.4790954589844	814.0723266601562	1351.359252929688	-493.7930297851562	809.3861694335938	1141.892211914062	-521.2603149414062	751.7982788085938	1128.33935546875	-456.3603820800781	902.48291015625	903.937255859375	-491.9441223144531	853.45703125	888.7672119140625	-559.134765625	822.1864013671875	1034.287475585938	-539.9078979492188	895.955078125	706.914794921875	-501.0375366210938	865.6563720703125	799.6235961914062	-558.6721801757812	922.0086669921875	801.848388671875	-520.603759765625	902.2797241210938	1470.869262695312	-93.13447570800781	896.38232421875	1407.663940429688	-23.01792907714844	894.3846435546875	1128.364868164062	28.96312522888184	842.8737182617188	1117.06298828125	-51.15182495117188	1003.218383789062	908.9556884765625	29.56333351135254	928.728271484375	1062.285278320312	35.44678497314453	1056.493286132812	750.0472412109375	-64.47895812988281	1053.59619140625	807.000244140625	20.63149261474609	859.22216796875	1663.824951171875	-207.0203094482422	1051.75634765625	1715.526000976562	-316.1576232910156	1058.805541992188	1711.9306640625	-216.2524566650391	893.5253295898438	1675.741577148438	-342.7766723632812	874.9029541015625	980.2532348632812	-442.6863098144531	891.0985717773438	999.8214721679688	-75.34999084472656	983.7117919921875	1046.042602539062	-118.1065979003906	977.439697265625	1026.042236328125	-401.0535888671875	991.2476806640625	504.6783142089844	-403.5300903320312	959.0324096679688	645.51171875	-432.32958984375	883.05615234375	29.96782493591309	-388.5459899902344	932.3992919921875	280.3892822265625	-406.6724853515625	1097.664916992188	33.50202178955078	-333.71533203125	1028.813354492188	30.951171875	-291.3742065429688	1010.738891601562	26.43853569030762	-406.5693664550781	823.4213256835938	41.51406860351562	-338.0019226074219	938.9039306640625	509.6375732421875	-129.9498291015625	959.7495727539062	776.729248046875	-81.34320068359375	844.4358520507812	28.25976181030273	-161.3083953857422	940.7664794921875	389.5333862304688	-153.7019500732422	1050.55224609375	33.68206405639648	-226.0506439208984	954.6937255859375	26.07671356201172	-143.6272888183594	776.0365600585938	32.35504150390625	-214.2259063720703	1039.698364257812	929.4572143554688	-43.46960830688477	1095.381958007812	813.3770751953125	-37.95459747314453	990.5050048828125	33.43234634399414	-260.5636596679688	nan	nan	nan	
